<svg width="32" height="32" viewBox="0 0 32 32" fill="none" xmlns="http://www.w3.org/2000/svg">
<circle cx="16" cy="16" r="15" fill="white" stroke="#FE5F1E" stroke-width="2"/>
<path d="M19.64 14.84H16.76V11.96C16.76 11.4298 16.3302 11 15.8 11C15.2698 11 14.84 11.4298 14.84 11.96V14.84H11.96C11.4298 14.84 11 15.2698 11 15.8C11 16.3302 11.4298 16.76 11.96 16.76H14.84V19.64C14.84 20.1702 15.2698 20.6 15.8 20.6C16.3302 20.6 16.76 20.1702 16.76 19.64V16.76H19.64C20.1702 16.76 20.6 16.3302 20.6 15.8C20.6 15.2698 20.1702 14.84 19.64 14.84Z" fill="#EB5A1E"/>
</svg>
